<?xml version="1.0" standalone="no"?>
<!DOCTYPE svg PUBLIC "-//W3C//DTD SVG 20010904//EN"
 "http://www.w3.org/TR/2001/REC-SVG-20010904/DTD/svg10.dtd">
<svg version="1.0" xmlns="http://www.w3.org/2000/svg"
 width="700.000000pt" height="700.000000pt" viewBox="0 0 700.000000 700.000000"
 preserveAspectRatio="xMidYMid meet">
<metadata>
Created by potrace 1.11, written by Peter Selinger 2001-2013
</metadata>
<g transform="translate(0.000000,700.000000) scale(0.100000,-0.100000)"
fill="#000000" stroke="none">
<path d="M1450 3500 l0 -2406 505 0 c503 0 506 0 510 20 2 12 3 459 2 993 -2
859 0 973 13 974 20 0 1928 0 2000 0 l55 -1 0 -992 0 -993 505 0 505 0 2 2403
c1 1857 -1 2402 -10 2404 -7 0 -235 2 -508 3 l-497 1 0 -971 c-1 -533 -1 -980
-1 -992 l-1 -22 -1030 -1 -1030 0 0 22 c-1 13 -2 460 -3 993 l-2 970 -507 1
-508 0 0 -2406z"/>
</g>
</svg>
