<svg width="106" height="64" viewBox="0 0 106 64" fill="none" xmlns="http://www.w3.org/2000/svg">
<g clip-path="url(#clip0)">
<path d="M45.831 45.8991C45.831 49.2358 44.5308 51.1299 38.0806 51.1299C37.2328 51.1299 36.4959 51.0787 35.7618 50.9764V6.84787C35.7618 3.49917 36.8913 0 43.3983 0C44.2491 0 45.0401 0.075238 45.831 0.255977V45.8991ZM32.026 39.2169C32.026 45.4203 28.0085 49.9585 19.8597 50.8468C13.9189 51.4883 5.3177 50.7384 1.24621 50.2717C1.07548 49.6001 0.961711 48.7659 0.961711 48.0944C0.961711 42.674 3.84674 41.4213 6.62088 41.4213C9.44902 41.4213 13.9189 41.9392 17.2592 41.9392C20.8783 41.9392 22.0107 40.6986 22.0107 39.506C22.0107 37.9462 20.5398 37.2987 17.7116 36.7596L9.90139 35.251C3.45125 34.0013 0 29.5174 0 24.7473C0 18.9294 4.07438 14.0721 12.1093 13.1898C18.164 12.5182 25.5758 13.2681 29.6502 13.7649C29.8181 14.4636 29.875 15.1411 29.875 15.8398C29.875 21.2662 27.0468 22.4376 24.2727 22.4376C22.2384 22.4376 18.9549 22.0461 15.222 22.0461C11.4293 22.0461 9.8445 23.1031 9.8445 24.3769C9.8445 25.7291 11.3724 26.2711 13.6941 26.7078L21.1629 28.084C28.7454 29.4842 32.026 33.8476 32.026 39.2169ZM72.8778 62.9795C73.7286 63.4282 75.4244 63.9402 77.6323 63.9974C81.3652 64.0698 83.4024 62.6483 84.9303 59.2485L105.075 14.1232C104.283 13.6837 102.414 13.1838 100.886 13.1657C98.3399 13.1085 94.8317 13.6265 92.6266 18.9445L86.1196 34.4108L73.3303 13.4969C72.4824 13.241 70.5021 12.8826 69.0311 12.8826C64.5043 12.8826 61.9579 14.5419 59.3545 17.3936L46.9635 31.0712L56.9218 46.8658C58.7911 49.7537 61.2238 51.2263 65.1275 51.2263C67.7309 51.2263 69.879 50.63 70.8976 50.1361L58.9021 31.9175L67.3894 22.814L81.3652 44.8964" fill="white"/>
</g>
<defs>
<clipPath id="clip0">
<rect width="105.075" height="64" fill="white"/>
</clipPath>
</defs>
</svg>
