<svg width="72" height="72" viewBox="0 0 72 72" fill="none" xmlns="http://www.w3.org/2000/svg">
<path fill-rule="evenodd" clip-rule="evenodd" d="M37.8378 0H18.992C9.87669 22.7826 10.4041 44.4204 26.0118 47.6352C41.1786 50.76 56.342 36.9396 66.5802 23.9004L72 17.0305V11.9453L67.2064 17.4168C61.0756 24.4368 48.1714 38.619 38.0176 34.9506C27.133 31.032 33.6006 10.6146 37.8378 0ZM38.7144 0C34.5636 10.3662 28.0546 30.5118 38.2966 34.2C48.3046 37.809 61.7814 22.4136 66.6036 16.884L72 10.7123V0H38.7144ZM0 0H18.1316C9.17649 22.6008 9.32411 45.0234 25.841 48.4308C41.5514 51.66 57.0116 37.404 67.2176 24.3972L72 18.3391V72H0V0ZM4.64238 53.2422H8.20638V64.5606H13.8044V67.5882H4.64238V53.2422ZM23.0774 58.7992L23.0775 58.7987L23.0776 58.7984C23.2707 58.0956 23.4694 57.3724 23.643 56.6694L25.5114 62.7174H21.8772C21.9981 62.3188 22.1484 61.8383 22.3055 61.3363L22.3055 61.3362C22.574 60.4782 22.862 59.5576 23.0562 58.8762L23.0774 58.7992ZM30.852 67.5792L25.578 53.2602H25.569H21.834L16.5221 67.5792H20.331L21.0348 65.2968H26.3196L27.0396 67.5792H30.852ZM43.47 53.2602C43.8948 54.8028 44.3214 56.3454 44.7858 57.8844C45.4131 59.8367 45.8755 61.8381 46.1682 63.8676C46.5948 61.0308 46.6938 60.5448 47.3436 57.6234C47.5289 56.7434 47.7188 55.8634 47.9078 54.9877C48.0326 54.409 48.1571 53.8321 48.2796 53.2584H51.8292L48.195 67.5774H44.5138C44.342 66.9792 44.1748 66.3808 44.0078 65.7831C43.7342 64.8036 43.4612 63.8263 43.1694 62.856C42.6715 61.2968 42.2591 59.7118 41.9346 58.1076C41.6165 59.6781 41.209 61.2293 40.7142 62.7534L39.3354 67.5774H35.64L32.0094 53.2584H35.5788C36.482 56.7655 37.1941 60.3193 37.7118 63.9036C38.0765 61.8053 38.5488 59.7272 39.1266 57.6774L40.3074 53.2548H43.4736L43.47 53.2602ZM62.5262 56.0655C62.9593 56.2475 63.3512 56.5146 63.6786 56.8512L63.6732 56.8458C64.5372 57.9508 64.9519 59.3415 64.8342 60.7392C64.7298 63.7398 62.8812 64.9548 61.1964 64.9548C59.5116 64.9548 57.6054 63.702 57.6054 60.2928C57.6054 57.699 58.986 55.7928 61.1586 55.7928C61.6282 55.791 62.0933 55.8837 62.5262 56.0655ZM56.1557 65.606C57.4758 67.0093 59.2792 67.8593 61.2018 67.9842L61.2108 67.9824C62.8411 68.0321 64.436 67.5007 65.7108 66.483C66.5728 65.7441 67.2629 64.8254 67.7324 63.7915C68.202 62.7575 68.4396 61.6334 68.4288 60.498C68.4288 59.526 68.1444 54.7578 63.7614 53.2386C62.9188 52.9515 62.0343 52.8066 61.1442 52.8102C59.2227 52.9499 57.4258 53.8135 56.1164 55.2267C54.8069 56.6401 54.0828 58.4975 54.0902 60.424C54.0974 62.3507 54.8357 64.2028 56.1557 65.606Z" fill="white"/>
</svg>
