<svg width="309" height="32" viewBox="0 0 309 32" fill="none" xmlns="http://www.w3.org/2000/svg">
<path d="M50.2976 9.03375H53.1556L55.5331 27.2937H55.6212L60.5296 9.03375H63.5582L68.4667 27.2937H68.5548L70.9323 9.03375H73.7903L69.9597 30.3513H67.0163L62.0653 12.4191H61.98L57.0687 30.3513H54.1282L50.2976 9.03375Z" fill="white"/>
<path d="M173.653 0.855469H176.77L180.424 26.6794H180.509L187.468 0.855469H191.091L198.093 26.6794H198.178L202.108 0.855469H205.006L199.626 30.354H196.557L189.3 3.95435H189.214L182 30.354H178.846L173.653 0.855469Z" fill="white"/>
<path d="M2.78831 17.2368H9.59351C14.2858 17.2368 16.8822 19.3496 16.8822 22.779C16.8822 26.7015 14.3284 28.2605 10.0627 28.2605H2.78831V17.2368ZM2.78831 3.22438H9.89781C14.6328 3.22438 16.9362 5.00932 16.9362 8.97586C16.9362 12.9424 14.8631 15.0083 10.1282 15.0083H2.78831V3.22438ZM0.0582275 30.4917H10.9586C16.8452 30.4917 19.3791 27.3653 19.3791 22.9828C19.3791 19.9418 17.9145 17.3057 14.2232 16.4132V16.3306C17.9771 15.6281 19.6634 12.8185 19.6634 8.97586C19.6634 3.81107 16.2082 0.993195 10.4495 0.993195H0.0582275V30.4917Z" fill="white"/>
<path d="M210.998 9.15219H213.682V30.4697H210.998V9.15219Z" fill="white"/>
<path d="M254.727 9.15219H257.414V30.4697H254.727V9.15219Z" fill="white"/>
<path d="M265.747 9.15219H268.434V12.8295H268.519C269.5 10.2678 272.444 8.53241 275.558 8.53241C281.743 8.53241 283.242 11.6726 283.242 16.7548V30.4725H280.554V17.168C280.554 13.4906 279.696 10.725 275.345 10.725C271.079 10.725 268.519 13.8625 268.434 18.0357V30.4725H265.747V9.15219Z" fill="white"/>
<path d="M303.822 15.4409C304.974 12.4467 301.613 10.7719 298.541 10.7719C296.153 10.7719 293.334 11.6809 293.334 14.452C293.334 16.7631 296.067 17.5894 297.902 18.0439L301.485 18.829C304.556 19.2835 307.755 21.0189 307.755 24.7403C307.755 29.3679 303.02 31.1446 298.925 31.1446C293.807 31.1446 289.276 28.5223 290.36 23.6219H293.05C291.844 26.718 295.47 28.9547 299.053 28.9547C301.57 28.9547 305.071 27.8804 305.071 24.9055C305.071 22.4264 302.679 21.5973 300.248 21.0189L296.793 20.2779C293.295 19.3661 290.647 18.2092 290.647 14.5732C290.647 10.2348 295.044 8.58203 298.925 8.58203C303.319 8.58203 307.789 11.2457 306.51 15.4409H303.822Z" fill="white"/>
<path d="M132.344 15.394C133.499 12.3998 130.134 10.725 127.063 10.725C124.674 10.725 121.859 11.634 121.859 14.4024C121.859 16.7162 124.589 17.5426 126.423 17.9971L130.006 18.7821C133.081 19.2366 136.28 20.972 136.28 24.6934C136.28 29.3211 131.542 31.0978 127.447 31.0978C122.328 31.0978 117.795 28.4754 118.884 23.5751H121.569C120.366 26.6712 123.992 28.9079 127.575 28.9079C130.092 28.9079 133.593 27.8336 133.593 24.8587C133.593 22.3796 131.201 21.5532 128.769 20.972L125.314 20.2282C121.813 19.3193 119.169 18.1623 119.169 14.5263C119.169 10.1879 123.565 8.53241 127.447 8.53241C131.841 8.53241 136.314 11.1988 135.034 15.394H132.344Z" fill="white"/>
<path d="M35.4644 10.8132C40.5747 10.8132 42.7303 15.3114 42.7303 19.8124C42.7303 24.3105 40.5747 28.8115 35.4644 28.8115C30.3541 28.8115 28.1985 24.3105 28.1985 19.8124C28.1985 15.3114 30.3541 10.8132 35.4644 10.8132ZM35.4644 8.64539C28.7928 8.64539 25.5395 13.7606 25.5395 19.8124C25.5395 25.8669 28.7928 30.9793 35.4644 30.9793C42.1359 30.9793 45.3893 25.8669 45.3893 19.8124C45.3893 13.7606 42.1359 8.64539 35.4644 8.64539Z" fill="white"/>
<path d="M233.165 0.973907H235.853V19.0245L246.085 9.15219H249.58L241.415 17.044L250.137 30.4725H247.015L239.538 18.7711L235.853 22.3741V30.4725H233.165V0.973907Z" fill="white"/>
<path d="M115.025 12.3805C114.263 11.8957 113.427 11.5707 112.156 11.5707C109.503 11.5707 108.013 13.9589 108.013 18.0108V30.4862H105.288V9.22105H108.013V11.8544C108.886 10.1548 110.703 8.89047 112.736 8.89047C114.155 8.89047 115.059 9.2073 115.716 9.53232L115.025 12.3805Z" fill="white"/>
<path d="M222.106 0.976685H224.793V30.4752H222.106V0.976685Z" fill="white"/>
<path d="M152.296 17.066L152.302 17.0715C150.88 17.9227 146.361 19.9225 146.361 24.3931H146.378C146.378 24.4069 146.378 24.4152 146.378 24.429C146.378 26.6161 148.013 30.8195 153.96 30.8195C159.09 30.8195 161.03 27.2138 161.03 27.2138L163.848 30.4091H167.075C166.285 29.5249 162.443 25.2168 162.443 25.2168C162.443 25.2168 164.152 22.1647 164.152 19.4322H161.82C161.82 21.1703 160.862 23.4538 160.862 23.4538L155.854 17.5508C155.854 17.5508 160.7 15.3554 160.7 11.3227C160.7 8.48557 158.197 6.60144 154.876 6.60144C151.713 6.60144 149.469 8.55169 149.469 11.3586C149.469 13.7633 150.957 15.2811 152.296 17.066ZM158.228 11.2318C158.228 13.7963 155.874 15.0552 154.401 15.9091C154.401 15.9091 151.978 13.3831 151.978 11.2263C151.978 9.32571 153.624 8.46077 155.106 8.46077C156.508 8.46077 158.228 9.30092 158.228 11.2318ZM154.068 28.6186C151.79 28.6186 149.034 27.0898 149.034 24.2582C149.034 21.4953 151.162 20.0437 153.65 18.6444C153.661 18.6609 153.675 18.6774 153.675 18.6774L159.625 25.5859C159.625 25.5859 157.992 28.6186 154.068 28.6186Z" fill="white"/>
<path d="M95.1444 23.6329C94.277 26.7015 92.5366 28.8115 88.7458 28.8115C83.6355 28.8115 81.9861 24.2692 81.9434 20.5092H97.9512C98.1617 14.5759 95.7558 8.64539 88.7458 8.64539C81.8183 8.64539 79.2845 14.2481 79.2845 19.8124C79.2845 25.8255 81.8183 30.9793 88.7458 30.9793C93.9613 30.9793 96.4696 28.4617 97.6867 24.1067L95.1444 23.6329ZM88.7458 10.8132C93.0513 10.8132 95.1671 14.4547 95.2922 18.3386H81.9434C82.3671 14.4933 84.3948 10.8132 88.7458 10.8132Z" fill="white"/>
<path d="M210.998 0.976685H213.682V5.14985H210.998V0.976685Z" fill="white"/>
<path d="M254.727 0.976685H257.414V5.14985H254.727V0.976685Z" fill="white"/>
</svg>
